HIERARCHY
ROOT joint_0
{
	OFFSET 0.000000 0.000000 0.000000
	CHANNELS 6 Xposition Yposition Zposition Zrotation Yrotation Xrotation 
	JOINT joint_1
	{
		OFFSET 6.590088 -1.122192 114.019043
		CHANNELS 3 Zrotation Yrotation Xrotation
		JOINT joint_2
		{
			OFFSET -5.956055 -0.820435 104.151001
			CHANNELS 3 Zrotation Yrotation Xrotation
			JOINT joint_3
			{
				OFFSET -7.343506 -1.103027 103.942993
				CHANNELS 3 Zrotation Yrotation Xrotation
				JOINT joint_4
				{
					OFFSET 3.109131 -2.857056 147.715942
					CHANNELS 3 Zrotation Yrotation Xrotation
					JOINT joint_5
					{
						OFFSET 28.592285 -2.852295 87.703979
						CHANNELS 3 Zrotation Yrotation Xrotation
						End Site
						{
							OFFSET 0.000000 0.000000 0.000000
						}
					}
				}
				JOINT joint_6
				{
					OFFSET -0.332520 -33.687378 82.401978
					CHANNELS 3 Zrotation Yrotation Xrotation
					JOINT joint_7
					{
						OFFSET -7.397461 -168.719177 -22.750977
						CHANNELS 3 Zrotation Yrotation Xrotation
						JOINT joint_8
						{
							OFFSET 17.065918 -24.903137 -272.721069
							CHANNELS 3 Zrotation Yrotation Xrotation
							JOINT joint_9
							{
								OFFSET 33.311279 -37.031616 -278.192993
								CHANNELS 3 Zrotation Yrotation Xrotation
								End Site
								{
									OFFSET 0.000000 0.000000 0.000000
								}
							}
						}
					}
				}
				JOINT joint_10
				{
					OFFSET 3.914307 30.461670 83.552979
					CHANNELS 3 Zrotation Yrotation Xrotation
					JOINT joint_11
					{
						OFFSET 15.543701 166.845459 -30.963013
						CHANNELS 3 Zrotation Yrotation Xrotation
						JOINT joint_12
						{
							OFFSET 35.734863 35.017700 -269.786011
							CHANNELS 3 Zrotation Yrotation Xrotation
							JOINT joint_13
							{
								OFFSET 70.506592 13.977783 -273.320007
								CHANNELS 3 Zrotation Yrotation Xrotation
								End Site
								{
									OFFSET 0.000000 0.000000 0.000000
								}
							}
						}
					}
				}
			}
		}
	}
	JOINT joint_14
	{
		OFFSET -0.314697 -95.093994 -116.004028
		CHANNELS 3 Zrotation Yrotation Xrotation
		JOINT joint_15
		{
			OFFSET -22.490723 2.017883 -455.510986
			CHANNELS 3 Zrotation Yrotation Xrotation
			JOINT joint_16
			{
				OFFSET -46.427490 7.144104 -496.360985
				CHANNELS 3 Zrotation Yrotation Xrotation
				JOINT joint_17
				{
					OFFSET 209.055420 -37.122803 -85.191002
					CHANNELS 3 Zrotation Yrotation Xrotation
					End Site
					{
						OFFSET 0.000000 0.000000 0.000000
					}
				}
			}
		}
	}
	JOINT joint_18
	{
		OFFSET 5.652832 94.642578 -116.244019
		CHANNELS 3 Zrotation Yrotation Xrotation
		JOINT joint_19
		{
			OFFSET -12.379883 -7.332642 -455.843994
			CHANNELS 3 Zrotation Yrotation Xrotation
			JOINT joint_20
			{
				OFFSET -45.227051 -8.172241 -496.457985
				CHANNELS 3 Zrotation Yrotation Xrotation
				JOINT joint_21
				{
					OFFSET 210.522949 -11.530396 -88.809004
					CHANNELS 3 Zrotation Yrotation Xrotation
					End Site
					{
						OFFSET 0.000000 0.000000 0.000000
					}
				}
			}
		}
	}
}
MOTION
Frames: 12
Frame Time: 0.016667
-3233.114990 995.820740 1183.484985 -2.518245 -2.923359 0.210200 0.181254 0.433014 -0.728712 0.230804 -0.107543 0.176331 0.212965 0.135219 -0.114243 0.737618 2.257988 -2.021716 0.000000 0.000000 0.000000 0.964582 3.289102 0.603570 -0.031901 3.437555 0.318100 0.504814 -0.045780 4.132152 0.000000 0.000000 0.000000 3.714384 2.301954 2.703121 -0.145156 2.361849 -5.618789 0.942413 1.448233 3.395527 0.000000 0.000000 0.000000 -1.836170 1.163912 0.407140 -1.776449 1.632502 -0.724867 -1.811192 1.592552 -0.454926 0.000000 0.000000 0.000000 1.488639 1.040034 -1.657716 1.490908 -2.141596 0.261166 1.354814 3.555186 0.764398 0.000000 0.000000 0.000000 
-3232.458496 995.851807 1183.339966 -2.455335 -2.961437 0.210958 0.165025 0.398743 -0.764135 0.217026 -0.113166 0.182148 0.198707 0.143465 -0.117362 0.736088 2.262994 -2.016437 0.000000 0.000000 0.000000 0.960626 3.300922 0.587432 -0.028616 3.446426 0.344604 0.513558 -0.078438 4.169079 0.000000 0.000000 0.000000 3.722229 2.332318 2.734448 -0.142280 2.393219 -5.609717 0.945808 1.485922 3.402171 0.000000 0.000000 0.000000 -1.853207 1.256642 0.405669 -1.793618 1.622871 -0.733486 -1.828232 1.544885 -0.470321 0.000000 0.000000 0.000000 1.465205 1.106481 -1.678901 1.467207 -2.122234 0.288020 1.335582 3.508795 0.753799 0.000000 0.000000 0.000000 
-3231.658203 995.876404 1183.176025 -2.357665 -2.993734 0.220011 0.140783 0.361022 -0.809022 0.195837 -0.122446 0.189423 0.176991 0.156064 -0.120990 0.734926 2.256100 -2.013556 0.000000 0.000000 0.000000 0.950337 3.324672 0.548932 -0.023556 3.464480 0.386974 0.525792 -0.124228 4.220642 0.000000 0.000000 0.000000 3.729980 2.360948 2.777466 -0.139872 2.424075 -5.602962 0.948494 1.521010 3.406666 0.000000 0.000000 0.000000 -1.880851 1.361516 0.394499 -1.822044 1.600847 -0.741278 -1.855752 1.486216 -0.491936 0.000000 0.000000 0.000000 1.430498 1.180347 -1.710668 1.432289 -2.115938 0.314998 1.305481 3.456369 0.738302 0.000000 0.000000 0.000000 
-3230.441162 995.867676 1183.030029 -2.246151 -3.026853 0.225973 0.121537 0.367133 -0.843677 0.178817 -0.137170 0.195487 0.159692 0.172050 -0.123855 0.734923 2.190786 -2.020347 0.000000 0.000000 0.000000 0.931309 3.379557 0.517387 -0.018480 3.513883 0.408061 0.545762 -0.201629 4.302083 0.000000 0.000000 0.000000 3.750911 2.402854 2.830530 -0.136735 2.466401 -5.590226 0.941245 1.521697 3.378688 0.000000 0.000000 0.000000 -1.911108 1.503593 0.386625 -1.853338 1.554016 -0.747637 -1.885410 1.441463 -0.511962 0.000000 0.000000 0.000000 1.390342 1.298581 -1.732748 1.393906 -2.153462 0.334094 1.270081 3.433023 0.722182 0.000000 0.000000 0.000000 
-3228.732422 995.808533 1182.896973 -2.120703 -3.083521 0.222934 0.111348 0.464385 -0.856236 0.168856 -0.162506 0.195521 0.150489 0.199179 -0.121885 0.736219 2.034200 -2.040525 0.000000 0.000000 0.000000 0.897549 3.471781 0.503232 -0.011762 3.601495 0.381742 0.582022 -0.343782 4.447934 0.000000 0.000000 0.000000 3.794960 2.457543 2.884225 -0.133353 2.515355 -5.554234 0.914706 1.464438 3.285831 0.000000 0.000000 0.000000 -1.941406 1.719537 0.387365 -1.885108 1.468735 -0.749968 -1.914407 1.416413 -0.528231 0.000000 0.000000 0.000000 1.341919 1.495332 -1.732004 1.350510 -2.243863 0.339291 1.227210 3.439471 0.704564 0.000000 0.000000 0.000000 
-3226.606934 995.716125 1182.782959 -1.981920 -3.140475 0.216815 0.106211 0.603576 -0.858158 0.163040 -0.190858 0.194538 0.145584 0.228547 -0.119601 0.738770 1.819718 -2.070397 0.000000 0.000000 0.000000 0.855822 3.595136 0.498876 -0.004976 3.720802 0.332126 0.625929 -0.518001 4.622938 0.000000 0.000000 0.000000 3.853116 2.525526 2.946298 -0.129138 2.575207 -5.508905 0.878123 1.373480 3.159754 0.000000 0.000000 0.000000 -1.974097 1.972000 0.391973 -1.919614 1.358552 -0.751220 -1.945510 1.406794 -0.542621 0.000000 0.000000 0.000000 1.288273 1.735991 -1.721189 1.303815 -2.378427 0.336512 1.179174 3.476374 0.686446 0.000000 0.000000 0.000000 
-3224.009277 995.609680 1182.750000 -1.848880 -3.131070 0.214684 0.108114 0.675280 -0.864204 0.164938 -0.199439 0.196276 0.147574 0.237489 -0.119388 0.743405 1.601853 -2.106949 0.000000 0.000000 0.000000 0.813966 3.749852 0.506460 -0.004510 3.872463 0.293988 0.656097 -0.642488 4.739708 0.000000 0.000000 0.000000 3.903127 2.623089 3.035365 -0.120437 2.672258 -5.491588 0.851309 1.286735 3.071073 0.000000 0.000000 0.000000 -2.010088 2.171457 0.396996 -1.956992 1.250376 -0.757723 -1.980034 1.425154 -0.553437 0.000000 0.000000 0.000000 1.242485 1.948345 -1.718947 1.264769 -2.559096 0.335751 1.136634 3.580932 0.674353 0.000000 0.000000 0.000000 
-3220.851318 995.491516 1182.781006 -1.730188 -3.040285 0.210142 0.118045 0.635550 -0.863440 0.174921 -0.166580 0.194157 0.156940 0.206881 -0.119510 0.750822 1.397365 -2.150539 0.000000 0.000000 0.000000 0.789501 3.937513 0.538000 -0.015906 4.061156 0.278959 0.656011 -0.633496 4.753515 0.000000 0.000000 0.000000 3.929573 2.772945 3.154956 -0.104338 2.832166 -5.493619 0.830776 1.200000 3.006454 0.000000 0.000000 0.000000 -2.054218 2.278389 0.412120 -2.000970 1.193368 -0.771898 -2.022717 1.462262 -0.564239 0.000000 0.000000 0.000000 1.210467 2.107175 -1.716453 1.238811 -2.764972 0.333126 1.104435 3.770686 0.671294 0.000000 0.000000 0.000000 
-3217.220947 995.359375 1182.892944 -1.617633 -2.882866 0.209422 0.134996 0.527366 -0.865646 0.192648 -0.111863 0.194056 0.173202 0.153352 -0.122294 0.760525 1.191249 -2.201207 0.000000 0.000000 0.000000 0.765733 4.156624 0.586155 -0.032952 4.282703 0.271708 0.642267 -0.573134 4.710499 0.000000 0.000000 0.000000 3.948945 2.953320 3.298276 -0.083848 3.029204 -5.517895 0.819818 1.117236 2.978523 0.000000 0.000000 0.000000 -2.101721 2.331993 0.428306 -2.047679 1.137963 -0.791454 -2.068672 1.529287 -0.571052 0.000000 0.000000 0.000000 1.186449 2.237444 -1.721505 1.220746 -3.017403 0.331746 1.077912 4.030205 0.674447 0.000000 0.000000 0.000000 
-3213.330811 995.234192 1183.201050 -1.507577 -2.634302 0.236549 0.158784 0.364030 -0.904448 0.220197 -0.062426 0.205364 0.198030 0.101670 -0.132763 0.770341 0.988993 -2.252074 0.000000 0.000000 0.000000 0.698504 4.402400 0.622295 -0.044276 4.523877 0.266260 0.643245 -0.627177 4.660904 0.000000 0.000000 0.000000 3.988034 3.114410 3.468931 -0.063949 3.213055 -5.618900 0.847761 1.085205 3.094842 0.000000 0.000000 0.000000 -2.137898 2.355851 0.416763 -2.084264 0.966546 -0.817291 -2.103538 1.670422 -0.560193 0.000000 0.000000 0.000000 1.166344 2.340124 -1.775295 1.206085 -3.382508 0.350555 1.053880 4.345993 0.681698 0.000000 0.000000 0.000000 
-3209.215576 995.103271 1183.812988 -1.395393 -2.259877 0.307073 0.192483 0.116207 -1.003386 0.262592 -0.027004 0.238491 0.235343 0.057846 -0.158395 0.780351 0.806484 -2.301985 0.000000 0.000000 0.000000 0.551638 4.690313 0.629653 -0.044138 4.793117 0.278952 0.671752 -0.878876 4.616137 0.000000 0.000000 0.000000 4.058998 3.233237 3.685529 -0.046547 3.366996 -5.873501 0.951251 1.163552 3.490931 0.000000 0.000000 0.000000 -2.161636 2.337098 0.361510 -2.110518 0.623485 -0.847126 -2.126250 1.919202 -0.525272 0.000000 0.000000 0.000000 1.147862 2.420124 -1.905498 1.192988 -3.944756 0.403512 1.030166 4.753456 0.694026 0.000000 0.000000 0.000000 
-3204.841309 994.979431 1184.621948 -1.284319 -1.793443 0.404521 0.233209 -0.188036 -1.134795 0.314320 0.004396 0.278772 0.281010 0.014264 -0.191285 0.790136 0.627983 -2.350882 0.000000 0.000000 0.000000 0.360747 5.005797 0.627685 -0.037151 5.082951 0.290327 0.715132 -1.245561 4.563059 0.000000 0.000000 0.000000 4.150183 3.334225 3.927674 -0.030055 3.508553 -6.200667 1.092469 1.285561 4.033298 0.000000 0.000000 0.000000 -2.174235 2.287484 0.280720 -2.126589 0.163803 -0.884615 -2.138672 2.248758 -0.471782 0.000000 0.000000 0.000000 1.132265 2.471597 -2.081905 1.182513 -4.620579 0.474071 1.008291 5.227546 0.710697 0.000000 0.000000 0.000000 
